<svg xmlns="http://www.w3.org/2000/svg" xmlns:xlink="http://www.w3.org/1999/xlink" version="1.1" width="256" height="256" viewBox="0 0 256 256" xml:space="preserve">
<g style="stroke: none; stroke-width: 0; stroke-dasharray: none; stroke-linecap: butt; stroke-linejoin: miter; stroke-miterlimit: 10; fill: none; fill-rule: nonzero; opacity: 1;" transform="translate(1.4065934065934016 1.4065934065934016) scale(2.81 2.81)">
	<linearGradient id="SVGID_1" gradientUnits="userSpaceOnUse" x1="45" y1="84.7883" x2="45" y2="4.2607">
<stop offset="0%" style="stop-color:rgb(33,97,172);stop-opacity: 1"/>
<stop offset="100%" style="stop-color:rgb(43,127,226);stop-opacity: 1"/>
</linearGradient>
<circle cx="45" cy="45" r="45" style="stroke: none; stroke-width: 1; stroke-dasharray: none; stroke-linecap: butt; stroke-linejoin: miter; stroke-miterlimit: 10; fill: url(#SVGID_1); fill-rule: nonzero; opacity: 1;" transform="  matrix(1 0 0 1 0 0) "/>
	<path d="M 60.999 33.694 c 0 2.36 -0.584 4.442 -1.753 6.245 c -1.169 1.805 -2.779 3.251 -4.827 4.342 c 2.315 1.136 4.152 2.689 5.511 4.659 c 1.357 1.971 2.036 4.303 2.036 6.998 c 0 4.341 -1.497 7.77 -4.492 10.286 C 54.48 68.743 50.356 70 45.101 70 c -5.277 0 -9.441 -1.263 -12.492 -3.791 c -3.051 -2.527 -4.576 -5.951 -4.576 -10.27 c 0 -2.605 0.668 -4.91 2.004 -6.915 c 1.336 -2.004 3.228 -3.584 5.678 -4.743 c -2.071 -1.091 -3.696 -2.538 -4.876 -4.342 c -1.181 -1.803 -1.77 -3.885 -1.77 -6.245 c 0 -4.231 1.436 -7.571 4.309 -10.02 C 36.25 21.225 40.124 20 45 20 c 4.921 0 8.818 1.225 11.691 3.674 C 59.562 26.124 60.999 29.464 60.999 33.694 z M 50.678 55.037 c 0 -2.004 -0.517 -3.546 -1.553 -4.627 c -1.035 -1.08 -2.399 -1.62 -4.091 -1.62 s -3.062 0.54 -4.108 1.62 c -1.047 1.081 -1.569 2.623 -1.569 4.627 c 0 1.937 0.528 3.468 1.586 4.592 s 2.444 1.686 4.159 1.686 c 1.67 0 3.017 -0.556 4.041 -1.67 C 50.165 58.533 50.678 56.997 50.678 55.037 z M 45 28.684 c -1.514 0 -2.667 0.496 -3.457 1.486 s -1.186 2.366 -1.186 4.125 c 0 1.736 0.401 3.139 1.203 4.208 c 0.801 1.069 1.981 1.603 3.54 1.603 c 1.536 0 2.689 -0.535 3.457 -1.603 c 0.768 -1.069 1.152 -2.472 1.152 -4.208 c 0 -1.737 -0.396 -3.106 -1.186 -4.108 C 47.733 29.185 46.558 28.684 45 28.684 z" style="stroke: none; stroke-width: 1; stroke-dasharray: none; stroke-linecap: butt; stroke-linejoin: miter; stroke-miterlimit: 10; fill: rgb(255,255,255); fill-rule: nonzero; opacity: 1;" transform=" matrix(1 0 0 1 0 0) " stroke-linecap="round"/>
</g>
</svg>