<svg xmlns="http://www.w3.org/2000/svg" xmlns:xlink="http://www.w3.org/1999/xlink" version="1.1" width="256" height="256" viewBox="0 0 256 256" xml:space="preserve">
<g style="stroke: none; stroke-width: 0; stroke-dasharray: none; stroke-linecap: butt; stroke-linejoin: miter; stroke-miterlimit: 10; fill: none; fill-rule: nonzero; opacity: 1;" transform="translate(1.4065934065934016 1.4065934065934016) scale(2.81 2.81)">
	<circle cx="45" cy="45" r="45" style="stroke: none; stroke-width: 1; stroke-dasharray: none; stroke-linecap: butt; stroke-linejoin: miter; stroke-miterlimit: 10; fill: rgb(33,97,172); fill-rule: nonzero; opacity: 1;" transform="  matrix(1 0 0 1 0 0) "/>
	<polygon points="64.98,36.21 37.58,52.51 37.58,19.91 " style="stroke: none; stroke-width: 1; stroke-dasharray: none; stroke-linecap: butt; stroke-linejoin: miter; stroke-miterlimit: 10; fill: rgb(27,70,173); fill-rule: nonzero; opacity: 1;" transform="  matrix(1 0 0 1 0 0) "/>
	<path d="M 37.58 54.511 c -0.341 0 -0.682 -0.087 -0.989 -0.262 c -0.625 -0.355 -1.011 -1.02 -1.011 -1.738 v -32.6 c 0 -0.719 0.386 -1.383 1.011 -1.738 c 0.625 -0.356 1.393 -0.349 2.011 0.02 l 27.403 16.3 c 0.606 0.36 0.978 1.014 0.978 1.719 s -0.371 1.358 -0.978 1.719 l -27.403 16.3 C 38.288 54.417 37.934 54.511 37.58 54.511 z M 39.58 23.428 v 25.566 l 21.491 -12.783 L 39.58 23.428 z" style="stroke: none; stroke-width: 1; stroke-dasharray: none; stroke-linecap: butt; stroke-linejoin: miter; stroke-miterlimit: 10; fill: rgb(27,70,173); fill-rule: nonzero; opacity: 1;" transform=" matrix(1 0 0 1 0 0) " stroke-linecap="round"/>
	<line x1="0" y1="-8.5795" x2="0" y2="8.5795" style="stroke: none; stroke-width: 1; stroke-dasharray: none; stroke-linecap: butt; stroke-linejoin: miter; stroke-miterlimit: 10; fill: rgb(255,0,0); fill-rule: nonzero; opacity: 1;" transform=" matrix(1 0 0 1 0 0) "/>
	<path d="M 37.58 71.67 c -1.104 0 -2 -0.896 -2 -2 V 52.511 c 0 -1.104 0.896 -2 2 -2 s 2 0.896 2 2 V 69.67 C 39.58 70.774 38.685 71.67 37.58 71.67 z" style="stroke: none; stroke-width: 1; stroke-dasharray: none; stroke-linecap: butt; stroke-linejoin: miter; stroke-miterlimit: 10; fill: rgb(27,70,173); fill-rule: nonzero; opacity: 1;" transform=" matrix(1 0 0 1 0 0) " stroke-linecap="round"/>
	<path d="M 37.444 78.5 c -6.078 0 -10.838 -3.55 -10.838 -8.081 c 0 -1.104 0.896 -2 2 -2 s 2 0.896 2 2 c 0 2.174 3.195 4.081 6.838 4.081 s 6.839 -1.907 6.839 -4.081 c 0 -1.104 0.896 -2 2 -2 s 2 0.896 2 2 C 48.283 74.95 43.522 78.5 37.444 78.5 z" style="stroke: none; stroke-width: 1; stroke-dasharray: none; stroke-linecap: butt; stroke-linejoin: miter; stroke-miterlimit: 10; fill: rgb(27,70,173); fill-rule: nonzero; opacity: 1;" transform=" matrix(1 0 0 1 0 0) " stroke-linecap="round"/>
	<polygon points="68.39,32.8 40.99,49.1 40.99,16.5 " style="stroke: none; stroke-width: 1; stroke-dasharray: none; stroke-linecap: butt; stroke-linejoin: miter; stroke-miterlimit: 10; fill: rgb(255,0,0); fill-rule: nonzero; opacity: 1;" transform="  matrix(1 0 0 1 0 0) "/>
	<path d="M 40.991 51.1 c -0.341 0 -0.682 -0.087 -0.989 -0.262 c -0.625 -0.355 -1.011 -1.02 -1.011 -1.738 V 16.5 c 0 -0.719 0.386 -1.383 1.011 -1.738 c 0.625 -0.357 1.393 -0.349 2.011 0.02 l 27.403 16.3 c 0.606 0.36 0.978 1.014 0.978 1.719 s -0.371 1.358 -0.978 1.719 l -27.403 16.3 C 41.699 51.006 41.345 51.1 40.991 51.1 z M 42.991 20.017 v 25.566 L 64.482 32.8 L 42.991 20.017 z" style="stroke: none; stroke-width: 1; stroke-dasharray: none; stroke-linecap: butt; stroke-linejoin: miter; stroke-miterlimit: 10; fill: rgb(255,0,0); fill-rule: nonzero; opacity: 1;" transform=" matrix(1 0 0 1 0 0) " stroke-linecap="round"/>
	<line x1="0" y1="-8.5795" x2="0" y2="8.5795" style="stroke: none; stroke-width: 1; stroke-dasharray: none; stroke-linecap: butt; stroke-linejoin: miter; stroke-miterlimit: 10; fill: rgb(255,0,0); fill-rule: nonzero; opacity: 1;" transform=" matrix(1 0 0 1 0 0) "/>
	<path d="M 40.991 68.259 c -1.104 0 -2 -0.896 -2 -2 V 49.1 c 0 -1.104 0.896 -2 2 -2 s 2 0.896 2 2 v 17.159 C 42.991 67.363 42.096 68.259 40.991 68.259 z" style="stroke: none; stroke-width: 1; stroke-dasharray: none; stroke-linecap: butt; stroke-linejoin: miter; stroke-miterlimit: 10; fill: rgb(255,0,0); fill-rule: nonzero; opacity: 1;" transform=" matrix(1 0 0 1 0 0) " stroke-linecap="round"/>
	<path d="M 40.855 75.089 c -6.078 0 -10.838 -3.55 -10.838 -8.081 c 0 -1.104 0.896 -2 2 -2 s 2 0.896 2 2 c 0 2.174 3.195 4.081 6.838 4.081 s 6.839 -1.907 6.839 -4.081 c 0 -1.104 0.896 -2 2 -2 s 2 0.896 2 2 C 51.694 71.539 46.934 75.089 40.855 75.089 z" style="stroke: none; stroke-width: 1; stroke-dasharray: none; stroke-linecap: butt; stroke-linejoin: miter; stroke-miterlimit: 10; fill: rgb(255,0,0); fill-rule: nonzero; opacity: 1;" transform=" matrix(1 0 0 1 0 0) " stroke-linecap="round"/>
</g>
</svg>